<?xml version="1.0" encoding="utf-8"?>
<!-- Generator: Adobe Illustrator 24.0.0, SVG Export Plug-In . SVG Version: 6.00 Build 0)  -->
<svg version="1.1" id="Layer_1" xmlns="http://www.w3.org/2000/svg" xmlns:xlink="http://www.w3.org/1999/xlink" x="0px" y="0px"
	 viewBox="0 0 550 550" style="enable-background:new 0 0 550 550;" xml:space="preserve">
<style type="text/css">
	.st0{fill:url(#SVGID_1_);}
	.st1{fill:url(#SVGID_2_);}
	.st2{fill:url(#SVGID_3_);}
	.st3{fill:url(#SVGID_4_);}
	.st4{fill:#0F284A;}
	.st5{fill:url(#SVGID_5_);}
	.st6{fill:url(#SVGID_6_);}
	.st7{fill:url(#SVGID_7_);}
	.st8{fill:url(#SVGID_8_);}
	.st9{fill:url(#SVGID_9_);}
	.st10{fill:url(#SVGID_10_);}
	.st11{fill:#9AA0A8;}
	.st12{fill:#B3945E;}
	.st13{fill:#939598;}
	.st14{fill:url(#SVGID_11_);}
	.st15{fill:url(#SVGID_12_);}
	.st16{fill:url(#SVGID_13_);}
	.st17{fill:url(#SVGID_14_);}
</style>
<g>
	<g>
		<path class="st11" d="M334.26,369.58c2.47,4.29,5.95,3.93,5.95,3.93l-5.52,3.18c-1.54,0.89-3.49,0.34-4.37-1.18l-3.18-5.52
			c-0.79-1.38-2.52-2.24-4.37-1.18l-2.77,1.59l6.36,11.07l-22.15,12.74c-5.42,3.12-10.48,0.73-12.93-3.3
			c-2.54-4.17-2.23-10.05,3.39-13.29l11.09-6.38l0.4,7.12l-8.31,4.78c-1.83,1.05-1.95,2.98-1.16,4.35c0.8,1.4,2.52,2.24,4.34,1.19
			l16.61-9.55l-6.36-11.07l8.31-4.78c5.52-3.18,10.68-0.62,13.06,3.52L334.26,369.58z M316.57,390.02l5.24,1.41l-1.41,5.24
			l-4.37-1.18l-1.18,4.37l-5.24-1.41l1.41-5.24l4.37,1.18L316.57,390.02z"/>
		<path class="st11" d="M333.55,352.31l-5.21-1.41l1.39-5.23l4.37,1.18l1.18-4.37l5.24,1.41l-1.42,5.22l-4.37-1.18L333.55,352.31z
			 M341.7,350.57l9.54,16.59l-11.07,6.36c-1.54,0.89-3.48,0.36-4.36-1.18l-1.58-2.75l8.29-4.77l-4.77-8.29
			c-0.87-1.52-0.34-3.49,1.18-4.37L341.7,350.57z"/>
		<path class="st11" d="M354.01,358.22c-4.33-3.93-5.31-11.7,1.49-15.61c5.54-3.19,10.71-0.61,13.1,3.53l4.77,8.29l-19.38,11.15
			c-1.54,0.89-3.48,0.36-4.37-1.18l-1.58-2.75L354.01,358.22z M354.23,340.39L349,339l1.41-5.24l5.24,1.41L354.23,340.39z
			 M364.65,352.1l-1.59-2.77c-0.8-1.4-2.52-2.24-4.37-1.18c-3.7,2.13-0.51,7.67,3.19,5.54L364.65,352.1z"/>
		<path class="st11" d="M377.64,329.91l9.54,16.59l-11.07,6.36c-1.54,0.89-3.48,0.36-4.37-1.18l-1.58-2.75l8.29-4.77l-4.77-8.29
			c-0.87-1.52-0.34-3.49,1.18-4.37L377.64,329.91z M380.89,352.95l4.37,1.18l1.18-4.37l5.23,1.39l-1.41,5.24l-4.37-1.18l-1.18,4.37
			l-5.22-1.43L380.89,352.95z"/>
		<path class="st11" d="M415.12,323.08l0.42,7.1l-25.62,14.73c-1.54,0.89-3.48,0.36-4.37-1.18l-1.58-2.75L415.12,323.08z
			 M420.66,319.89c2.47,4.29,5.96,3.95,5.96,3.95l-5.54,3.19c-1.52,0.87-3.46,0.35-4.34-1.19l-3.18-5.52
			c-0.8-1.4-2.52-2.24-4.37-1.18l-22.87,13.15c0,0,1.18-4.36-0.42-7.14l20.1-11.56c5.52-3.18,10.68-0.62,13.08,3.54L420.66,319.89z"
			/>
		<path class="st11" d="M440.61,293.66c5.54-3.19,10.68-0.62,13.08,3.54l4.77,8.29l-25.62,14.73l-1.59-2.77
			c0.89,1.54,0.36,3.48-1.18,4.37l-5.52,3.18c-1.54,0.89-3.48,0.36-4.37-1.18l-1.58-2.75l5.54-3.19l-4.78-8.32l3.93-5.95l2.04,3.55
			c0.05-3.47,1.51-5.59,3.5-6.74L440.61,293.66z M449.76,303.15l-1.59-2.77c-0.8-1.4-2.52-2.24-4.36-1.18l-11.78,6.78
			c-3.7,2.13-3.94,5.98-2.35,8.73L449.76,303.15z"/>
	</g>
	<g id="Sahifati">
		<path class="st11" d="M104.99,288.7c2.84,1.63,4.97,3.91,6.38,6.82l-3.79,3.66c-0.55-1.1-1.33-2.26-2.32-3.5
			c-0.99-1.23-2.01-2.15-3.05-2.75c-0.82-0.47-1.62-0.68-2.38-0.63c-0.76,0.05-1.32,0.38-1.67,0.99c-0.34,0.6-0.25,1.37,0.27,2.31
			c0.52,0.94,1.19,1.98,2,3.1c0.81,1.12,1.65,2.27,2.5,3.45c0.85,1.17,1.36,2.5,1.52,3.98c0.16,1.48-0.16,2.93-0.98,4.35
			c-1.2,2.08-2.93,3.29-5.2,3.63c-2.27,0.34-4.62-0.19-7.05-1.58c-2.97-1.71-5.27-4.14-6.89-7.29l3.86-4.01
			c1.57,3.39,3.51,5.74,5.81,7.06c0.89,0.51,1.78,0.72,2.67,0.63c0.89-0.09,1.53-0.49,1.93-1.18c0.36-0.63,0.29-1.41-0.21-2.35
			c-0.5-0.94-1.16-1.97-1.97-3.09c-0.81-1.12-1.65-2.27-2.5-3.45c-0.85-1.17-1.37-2.5-1.56-3.98c-0.19-1.48,0.12-2.92,0.93-4.33
			c1.11-1.93,2.76-3.05,4.96-3.36C100.44,286.87,102.69,287.38,104.99,288.7z"/>
		<path class="st11" d="M122.8,329.86l0.96-5.07l-9.1-5.23l-3.9,3.39l-4.91-2.82l21.21-18.28l5.51,3.16l-5.1,27.53L122.8,329.86z
			 M118.49,316.22l6.21,3.57l1.61-8.48l0.8-2.86l-2.11,2.12L118.49,316.22z"/>
		<path class="st11" d="M163.21,322.78l4.65,2.67l-13.08,22.78l-4.65-2.67l5.32-9.27l-9.96-5.72l-5.32,9.27l-4.65-2.67l13.08-22.78
			l4.65,2.67l-5.23,9.11l9.96,5.72L163.21,322.78z"/>
		<path class="st11" d="M182.53,333.87l-13.08,22.78l-4.65-2.67l13.08-22.78L182.53,333.87z"/>
		<path class="st11" d="M205.78,353.06l-11.09-6.37l-3.08,5.37l9.5,5.46l-2.43,4.23l-9.5-5.46l-5.04,8.78l-4.65-2.67l13.08-22.78
			l15.75,9.04L205.78,353.06z"/>
		<path class="st11" d="M217.06,383.98l0.96-5.07l-9.1-5.23l-3.9,3.39l-4.91-2.82l21.21-18.28l5.51,3.16l-5.1,27.53L217.06,383.98z
			 M212.75,370.35l6.21,3.57l1.61-8.48l0.8-2.86l-2.11,2.12L212.75,370.35z"/>
		<path class="st11" d="M257.43,376.88l-2.58,4.49l-6.96-4l-10.5,18.29l-4.65-2.67l10.5-18.29l-6.96-4l2.58-4.49L257.43,376.88z"/>
		<path class="st11" d="M270.32,384.28l-13.08,22.78l-4.65-2.67l13.08-22.78L270.32,384.28z"/>
	</g>
	<g>
		<path class="st13" d="M458.68,370.62l-101.64,58.79c-15.33,8.81-30.66,17.61-45.99,26.41c-9.55,5.48-19.1,10.97-29.95,17.21
			c38.08,22.43,74.79,44.11,111.57,65.67c13.03,7.64,12.97,7.42,20.16-5.86c1.69-3.12,0.97-4.34-1.71-5.86
			c-8.33-4.75-16.61-9.61-24.84-14.55c-9.27-5.57-17.29-12.55-23.11-21.76c-7.8-12.33-5.66-25.5,4.23-33.49
			c2.94-1.83,22.05-13.76,41.84-26.21c0.12,0.08,0.24,0.16,0.37,0.23c-0.12-0.08-0.24-0.16-0.36-0.24
			c20.67-13.01,42.06-26.6,46.45-29.83C464.65,394.55,458.68,370.62,458.68,370.62z M366.86,457.57c0,0-0.01-0.01-0.01-0.01
			l0.16-0.12C366.95,457.48,366.9,457.53,366.86,457.57z"/>
		<path class="st13" d="M96.6,400.78c4.39,3.23,25.78,16.82,46.45,29.83c-0.12,0.08-0.24,0.16-0.36,0.24
			c0.12-0.08,0.24-0.16,0.37-0.23c19.78,12.45,38.9,24.38,41.84,26.21c9.89,7.98,12.03,21.16,4.23,33.49
			c-5.82,9.2-13.85,16.19-23.11,21.76c-8.22,4.94-16.5,9.79-24.84,14.55c-2.67,1.52-3.39,2.74-1.71,5.86
			c7.19,13.29,7.14,13.5,20.16,5.86c36.78-21.56,73.49-43.24,111.57-65.67c-10.85-6.24-20.4-11.73-29.95-17.21
			c-15.33-8.8-30.66-17.61-45.99-26.41L93.62,370.26C93.62,370.26,87.64,394.19,96.6,400.78z M185.3,457.08l0.16,0.12
			c0,0-0.01,0.01-0.01,0.01C185.4,457.16,185.35,457.12,185.3,457.08z"/>
		<linearGradient id="SVGID_1_" gradientUnits="userSpaceOnUse" x1="285.596" y1="36.4083" x2="270.6168" y2="541.1108">
			<stop  offset="4.049120e-07" style="stop-color:#C49A6C;stop-opacity:0.2"/>
			<stop  offset="0.2495" style="stop-color:#C49B6C;stop-opacity:0.3516"/>
			<stop  offset="0.3292" style="stop-color:#C59C6D;stop-opacity:0.4"/>
			<stop  offset="0.6771" style="stop-color:#C59C6D;stop-opacity:0.6"/>
			<stop  offset="1" style="stop-color:#C59C6D"/>
		</linearGradient>
		<path class="st0" d="M69.5,320.97c0-0.43-0.01-0.86,0-1.28c0.35-14.37,2.82-15.85,14.86-8.9
			c62.37,35.98,124.77,71.9,187.04,108.06c4.41,2.56,7.5,2.2,11.63-0.2c63.21-36.65,126.51-73.17,189.79-109.71
			c8.38-4.84,9.26-4.42,11.22,5.39c2.89,14.43-2.61,27-15.2,34.27c-60.7,35.03-121.47,69.93-182.05,105.16
			c-6.89,4.01-12.27,4.21-19.27,0.13c-61.68-35.89-123.58-71.41-185.36-107.12C72.33,341.07,70.02,331.38,69.5,320.97z"/>
		<linearGradient id="SVGID_2_" gradientUnits="userSpaceOnUse" x1="281.6857" y1="87.5699" x2="269.5201" y2="497.4718">
			<stop  offset="4.049120e-07" style="stop-color:#C49A6C;stop-opacity:0.2"/>
			<stop  offset="0.2495" style="stop-color:#C49B6C;stop-opacity:0.3516"/>
			<stop  offset="0.3292" style="stop-color:#C59C6D;stop-opacity:0.4"/>
			<stop  offset="0.6771" style="stop-color:#C59C6D;stop-opacity:0.6"/>
			<stop  offset="1" style="stop-color:#C59C6D"/>
		</linearGradient>
		<path class="st1" d="M141.99,306.01c-9.83-5.67-18.91-10.95-28.04-16.14c-1.69-0.96-1.75-2.34-1.75-3.95
			c0.02-30.19,0-60.38,0.03-90.58c0.01-6.47,3.01-11.07,8.66-14.32c49.06-28.24,98.1-56.54,147.08-84.93
			c6.38-3.7,12.21-3.64,18.55,0.03c48.84,28.29,97.72,56.5,146.64,84.66c6.18,3.56,8.99,8.5,8.95,15.71
			c-0.17,29.32-0.12,58.65-0.01,87.97c0.01,3.11-0.72,5.01-3.61,6.59c-8.48,4.61-16.78,9.57-25.94,14.86c0-2.29,0-3.92,0-5.55
			c0-30.71-0.05-61.43,0.07-92.14c0.01-3.51-0.92-5.51-4.12-7.34C366,176.51,323.58,152,281.21,127.4
			c-2.87-1.67-4.85-1.84-7.87-0.09c-42.35,24.63-84.78,49.12-127.28,73.5c-3.16,1.81-4.16,3.78-4.15,7.32
			C142.04,240.4,141.99,272.67,141.99,306.01z"/>
		<linearGradient id="SVGID_3_" gradientUnits="userSpaceOnUse" x1="282.3294" y1="87.6077" x2="270.1625" y2="497.5509">
			<stop  offset="4.049120e-07" style="stop-color:#C49A6C;stop-opacity:0.2"/>
			<stop  offset="0.2495" style="stop-color:#C49B6C;stop-opacity:0.3516"/>
			<stop  offset="0.3292" style="stop-color:#C59C6D;stop-opacity:0.4"/>
			<stop  offset="0.6771" style="stop-color:#C59C6D;stop-opacity:0.6"/>
			<stop  offset="1" style="stop-color:#C59C6D"/>
		</linearGradient>
		<path class="st2" d="M154.86,262.32c0-15.61,0.09-31.23-0.07-46.84c-0.03-3.39,1.1-5.3,4.04-7
			c38.17-21.96,76.29-44.03,114.38-66.14c2.66-1.54,4.81-1.75,7.62-0.12c37.93,22.05,75.89,44.03,113.94,65.86
			c3.51,2.01,4.75,4.23,4.73,8.21c-0.15,30.71-0.16,61.41,0.01,92.12c0.02,4.06-1.36,6.34-4.82,8.2
			c-6.88,3.68-13.56,7.72-20.33,11.6c-4.99,2.87-5.32,2.71-5.32-2.98c-0.02-29.32-0.23-58.64,0.16-87.96
			c0.09-6.72-1.74-10.44-7.78-13.8c-26.95-15.04-53.58-30.64-80.25-46.17c-2.9-1.69-4.97-1.84-7.99-0.08
			c-27.86,16.25-55.8,32.35-83.8,48.35c-3.15,1.8-4.15,3.95-4.14,7.47c0.12,30.53,0.07,61.07,0.06,91.6c0,6.42-0.27,6.58-5.71,3.45
			c-6.92-3.97-13.77-8.06-20.76-11.91c-2.92-1.61-4.1-3.59-4.06-7.02C154.96,293.55,154.86,277.94,154.86,262.32z"/>
		<linearGradient id="SVGID_4_" gradientUnits="userSpaceOnUse" x1="275.7918" y1="87.6143" x2="263.5622" y2="499.6732">
			<stop  offset="4.049120e-07" style="stop-color:#C49A6C;stop-opacity:0.2"/>
			<stop  offset="0.2495" style="stop-color:#C49B6C;stop-opacity:0.3516"/>
			<stop  offset="0.3292" style="stop-color:#C59C6D;stop-opacity:0.4"/>
			<stop  offset="0.6771" style="stop-color:#C59C6D;stop-opacity:0.6"/>
			<stop  offset="1" style="stop-color:#C59C6D"/>
		</linearGradient>
		<path class="st3" d="M306.26,48.11L283.4,70.97c-3.45,3.45-9.05,3.45-12.5,0l-22.86-22.86c-3.45-3.45-3.45-9.05,0-12.5
			l22.86-22.86c3.45-3.45,9.05-3.45,12.5,0l22.86,22.86C309.71,39.06,309.71,44.66,306.26,48.11z"/>
	</g>
</g>
</svg>
