<svg xmlns="http://www.w3.org/2000/svg" xml:space="preserve" id="Layer_1" x="0" y="0" viewBox="0 0 550 550"><style>.st11{fill:#9aa0a8}.st13{fill:#939598}</style><path d="M334.26 369.58c2.47 4.29 5.95 3.93 5.95 3.93l-5.52 3.18c-1.54.89-3.49.34-4.37-1.18l-3.18-5.52c-.79-1.38-2.52-2.24-4.37-1.18L320 370.4l6.36 11.07-22.15 12.74c-5.42 3.12-10.48.73-12.93-3.3-2.54-4.17-2.23-10.05 3.39-13.29l11.09-6.38.4 7.12-8.31 4.78c-1.83 1.05-1.95 2.98-1.16 4.35.8 1.4 2.52 2.24 4.34 1.19l16.61-9.55-6.36-11.07 8.31-4.78c5.52-3.18 10.68-.62 13.06 3.52zm-17.69 20.44 5.24 1.41-1.41 5.24-4.37-1.18-1.18 4.37-5.24-1.41 1.41-5.24 4.37 1.18z" class="st11"/><path d="m333.55 352.31-5.21-1.41 1.39-5.23 4.37 1.18 1.18-4.37 5.24 1.41-1.42 5.22-4.37-1.18zm8.15-1.74 9.54 16.59-11.07 6.36c-1.54.89-3.48.36-4.36-1.18l-1.58-2.75 8.29-4.77-4.77-8.29a3.224 3.224 0 0 1 1.18-4.37z" class="st11"/><path d="M354.01 358.22c-4.33-3.93-5.31-11.7 1.49-15.61 5.54-3.19 10.71-.61 13.1 3.53l4.77 8.29-19.38 11.15c-1.54.89-3.48.36-4.37-1.18l-1.58-2.75zm.22-17.83L349 339l1.41-5.24 5.24 1.41zm10.42 11.71-1.59-2.77c-.8-1.4-2.52-2.24-4.37-1.18-3.7 2.13-.51 7.67 3.19 5.54z" class="st11"/><path d="m377.64 329.91 9.54 16.59-11.07 6.36c-1.54.89-3.48.36-4.37-1.18l-1.58-2.75 8.29-4.77-4.77-8.29a3.224 3.224 0 0 1 1.18-4.37zm3.25 23.04 4.37 1.18 1.18-4.37 5.23 1.39-1.41 5.24-4.37-1.18-1.18 4.37-5.22-1.43z" class="st11"/><path d="m415.12 323.08.42 7.1-25.62 14.73c-1.54.89-3.48.36-4.37-1.18l-1.58-2.75zm5.54-3.19c2.47 4.29 5.96 3.95 5.96 3.95l-5.54 3.19c-1.52.87-3.46.35-4.34-1.19l-3.18-5.52c-.8-1.4-2.52-2.24-4.37-1.18l-22.87 13.15s1.18-4.36-.42-7.14l20.1-11.56c5.52-3.18 10.68-.62 13.08 3.54z" class="st11"/><path d="M440.61 293.66c5.54-3.19 10.68-.62 13.08 3.54l4.77 8.29-25.62 14.73-1.59-2.77c.89 1.54.36 3.48-1.18 4.37l-5.52 3.18c-1.54.89-3.48.36-4.37-1.18l-1.58-2.75 5.54-3.19-4.78-8.32 3.93-5.95 2.04 3.55c.05-3.47 1.51-5.59 3.5-6.74zm9.15 9.49-1.59-2.77c-.8-1.4-2.52-2.24-4.36-1.18l-11.78 6.78c-3.7 2.13-3.94 5.98-2.35 8.73z" class="st11"/><g id="Sahifati"><path d="M104.99 288.7c2.84 1.63 4.97 3.91 6.38 6.82l-3.79 3.66c-.55-1.1-1.33-2.26-2.32-3.5-.99-1.23-2.01-2.15-3.05-2.75-.82-.47-1.62-.68-2.38-.63s-1.32.38-1.67.99q-.51.9.27 2.31c.52.94 1.19 1.98 2 3.1s1.65 2.27 2.5 3.45c.85 1.17 1.36 2.5 1.52 3.98s-.16 2.93-.98 4.35c-1.2 2.08-2.93 3.29-5.2 3.63s-4.62-.19-7.05-1.58c-2.97-1.71-5.27-4.14-6.89-7.29l3.86-4.01c1.57 3.39 3.51 5.74 5.81 7.06q1.335.765 2.67.63c.89-.09 1.53-.49 1.93-1.18.36-.63.29-1.41-.21-2.35s-1.16-1.97-1.97-3.09-1.65-2.27-2.5-3.45c-.85-1.17-1.37-2.5-1.56-3.98s.12-2.92.93-4.33c1.11-1.93 2.76-3.05 4.96-3.36 2.19-.31 4.44.2 6.74 1.52M122.8 329.86l.96-5.07-9.1-5.23-3.9 3.39-4.91-2.82 21.21-18.28 5.51 3.16-5.1 27.53zm-4.31-13.64 6.21 3.57 1.61-8.48.8-2.86-2.11 2.12zM163.21 322.78l4.65 2.67-13.08 22.78-4.65-2.67 5.32-9.27-9.96-5.72-5.32 9.27-4.65-2.67 13.08-22.78 4.65 2.67-5.23 9.11 9.96 5.72zM182.53 333.87l-13.08 22.78-4.65-2.67 13.08-22.78zM205.78 353.06l-11.09-6.37-3.08 5.37 9.5 5.46-2.43 4.23-9.5-5.46-5.04 8.78-4.65-2.67 13.08-22.78 15.75 9.04zM217.06 383.98l.96-5.07-9.1-5.23-3.9 3.39-4.91-2.82 21.21-18.28 5.51 3.16-5.1 27.53zm-4.31-13.63 6.21 3.57 1.61-8.48.8-2.86-2.11 2.12zM257.43 376.88l-2.58 4.49-6.96-4-10.5 18.29-4.65-2.67 10.5-18.29-6.96-4 2.58-4.49zM270.32 384.28l-13.08 22.78-4.65-2.67 13.08-22.78z" class="st11"/></g><path d="m458.68 370.62-101.64 58.79c-15.33 8.81-30.66 17.61-45.99 26.41-9.55 5.48-19.1 10.97-29.95 17.21 38.08 22.43 74.79 44.11 111.57 65.67 13.03 7.64 12.97 7.42 20.16-5.86 1.69-3.12.97-4.34-1.71-5.86-8.33-4.75-16.61-9.61-24.84-14.55-9.27-5.57-17.29-12.55-23.11-21.76-7.8-12.33-5.66-25.5 4.23-33.49 2.94-1.83 22.05-13.76 41.84-26.21.12.08.24.16.37.23l-.36-.24c20.67-13.01 42.06-26.6 46.45-29.83 8.95-6.58 2.98-30.51 2.98-30.51m-91.82 86.95-.01-.01.16-.12c-.06.04-.11.09-.15.13M96.6 400.78c4.39 3.23 25.78 16.82 46.45 29.83l-.36.24c.12-.08.24-.16.37-.23 19.78 12.45 38.9 24.38 41.84 26.21 9.89 7.98 12.03 21.16 4.23 33.49-5.82 9.2-13.85 16.19-23.11 21.76q-12.33 7.41-24.84 14.55c-2.67 1.52-3.39 2.74-1.71 5.86 7.19 13.29 7.14 13.5 20.16 5.86 36.78-21.56 73.49-43.24 111.57-65.67-10.85-6.24-20.4-11.73-29.95-17.21-15.33-8.8-30.66-17.61-45.99-26.41l-101.64-58.8s-5.98 23.93 2.98 30.52m88.7 56.3.16.12-.01.01c-.05-.05-.1-.09-.15-.13" class="st13"/><linearGradient id="SVGID_1_" x1="285.596" x2="270.617" y1="36.408" y2="541.111" gradientUnits="userSpaceOnUse"><stop offset="0" style="stop-color:#c49a6c;stop-opacity:.2"/><stop offset=".249" style="stop-color:#c49b6c;stop-opacity:.3516"/><stop offset=".329" style="stop-color:#c59c6d;stop-opacity:.4"/><stop offset=".677" style="stop-color:#c59c6d;stop-opacity:.6"/><stop offset="1" style="stop-color:#c59c6d"/></linearGradient><path d="M69.5 320.97c0-.43-.01-.86 0-1.28.35-14.37 2.82-15.85 14.86-8.9 62.37 35.98 124.77 71.9 187.04 108.06 4.41 2.56 7.5 2.2 11.63-.2 63.21-36.65 126.51-73.17 189.79-109.71 8.38-4.84 9.26-4.42 11.22 5.39 2.89 14.43-2.61 27-15.2 34.27-60.7 35.03-121.47 69.93-182.05 105.16-6.89 4.01-12.27 4.21-19.27.13C205.84 418 143.94 382.48 82.16 346.77c-9.83-5.7-12.14-15.39-12.66-25.8" style="fill:url(#SVGID_1_)"/><linearGradient id="SVGID_2_" x1="281.686" x2="269.52" y1="87.57" y2="497.472" gradientUnits="userSpaceOnUse"><stop offset="0" style="stop-color:#c49a6c;stop-opacity:.2"/><stop offset=".249" style="stop-color:#c49b6c;stop-opacity:.3516"/><stop offset=".329" style="stop-color:#c59c6d;stop-opacity:.4"/><stop offset=".677" style="stop-color:#c59c6d;stop-opacity:.6"/><stop offset="1" style="stop-color:#c59c6d"/></linearGradient><path d="M141.99 306.01c-9.83-5.67-18.91-10.95-28.04-16.14-1.69-.96-1.75-2.34-1.75-3.95.02-30.19 0-60.38.03-90.58.01-6.47 3.01-11.07 8.66-14.32 49.06-28.24 98.1-56.54 147.08-84.93 6.38-3.7 12.21-3.64 18.55.03 48.84 28.29 97.72 56.5 146.64 84.66 6.18 3.56 8.99 8.5 8.95 15.71-.17 29.32-.12 58.65-.01 87.97.01 3.11-.72 5.01-3.61 6.59-8.48 4.61-16.78 9.57-25.94 14.86v-5.55c0-30.71-.05-61.43.07-92.14.01-3.51-.92-5.51-4.12-7.34C366 176.51 323.58 152 281.21 127.4c-2.87-1.67-4.85-1.84-7.87-.09-42.35 24.63-84.78 49.12-127.28 73.5-3.16 1.81-4.16 3.78-4.15 7.32.13 32.27.08 64.54.08 97.88" style="fill:url(#SVGID_2_)"/><linearGradient id="SVGID_3_" x1="282.329" x2="270.163" y1="87.608" y2="497.551" gradientUnits="userSpaceOnUse"><stop offset="0" style="stop-color:#c49a6c;stop-opacity:.2"/><stop offset=".249" style="stop-color:#c49b6c;stop-opacity:.3516"/><stop offset=".329" style="stop-color:#c59c6d;stop-opacity:.4"/><stop offset=".677" style="stop-color:#c59c6d;stop-opacity:.6"/><stop offset="1" style="stop-color:#c59c6d"/></linearGradient><path d="M154.86 262.32c0-15.61.09-31.23-.07-46.84-.03-3.39 1.1-5.3 4.04-7 38.17-21.96 76.29-44.03 114.38-66.14 2.66-1.54 4.81-1.75 7.62-.12 37.93 22.05 75.89 44.03 113.94 65.86 3.51 2.01 4.75 4.23 4.73 8.21-.15 30.71-.16 61.41.01 92.12.02 4.06-1.36 6.34-4.82 8.2-6.88 3.68-13.56 7.72-20.33 11.6-4.99 2.87-5.32 2.71-5.32-2.98-.02-29.32-.23-58.64.16-87.96.09-6.72-1.74-10.44-7.78-13.8-26.95-15.04-53.58-30.64-80.25-46.17-2.9-1.69-4.97-1.84-7.99-.08-27.86 16.25-55.8 32.35-83.8 48.35-3.15 1.8-4.15 3.95-4.14 7.47.12 30.53.07 61.07.06 91.6 0 6.42-.27 6.58-5.71 3.45-6.92-3.97-13.77-8.06-20.76-11.91-2.92-1.61-4.1-3.59-4.06-7.02.19-15.61.09-31.22.09-46.84" style="fill:url(#SVGID_3_)"/><linearGradient id="SVGID_4_" x1="275.792" x2="263.562" y1="87.614" y2="499.673" gradientUnits="userSpaceOnUse"><stop offset="0" style="stop-color:#c49a6c;stop-opacity:.2"/><stop offset=".249" style="stop-color:#c49b6c;stop-opacity:.3516"/><stop offset=".329" style="stop-color:#c59c6d;stop-opacity:.4"/><stop offset=".677" style="stop-color:#c59c6d;stop-opacity:.6"/><stop offset="1" style="stop-color:#c59c6d"/></linearGradient><path d="M306.26 48.11 283.4 70.97c-3.45 3.45-9.05 3.45-12.5 0l-22.86-22.86c-3.45-3.45-3.45-9.05 0-12.5l22.86-22.86c3.45-3.45 9.05-3.45 12.5 0l22.86 22.86c3.45 3.45 3.45 9.05 0 12.5" style="fill:url(#SVGID_4_)"/></svg>